<svg width="52.000000" height="52.000000" viewBox="0 0 52 52" fill="none" xmlns="http://www.w3.org/2000/svg" xmlns:xlink="http://www.w3.org/1999/xlink">
	<desc>
			Created with Pixso.
	</desc>
	<defs>
		<clipPath id="clip157_2629">
			<rect id="left-quote 1" rx="0.000000" width="51.000000" height="51.000000" transform="translate(52.500000 52.500000) rotate(180.000000)" fill="white" fill-opacity="0"/>
		</clipPath>
	</defs>
	<g opacity="0.240000">
		<rect id="left-quote 1" rx="0.000000" width="51.000000" height="51.000000" transform="translate(52.500000 52.500000) rotate(180.000000)" fill="#FFFFFF" fill-opacity="0"/>
		<g clip-path="url(#clip157_2629)">
			<path id="Vector" d="M31.1 39.82C29.8 40.36 29.26 41.91 29.85 43.17L31.9 47.49C32.49 48.71 33.91 49.25 35.17 48.71C38.74 47.2 41.8 45.23 44.23 42.84C47.21 40.03 49.23 36.8 50.32 33.23C51.41 29.62 52 24.71 52 18.46L52 5.59C52 4.2 50.86 3.07 49.48 3.07L32.99 3.07C31.61 3.07 30.48 4.2 30.48 5.59L30.48 22.07C30.48 23.46 31.61 24.59 32.99 24.59L40.88 24.59C40.79 28.83 39.79 32.22 37.94 34.78C36.43 36.84 34.17 38.52 31.1 39.82Z" fill="#F6623E" fill-opacity="1.000000" fill-rule="nonzero"/>
			<path id="Vector" d="M1.49 39.82C0.19 40.36 -0.36 41.91 0.23 43.17L2.29 47.45C2.87 48.67 4.3 49.21 5.56 48.67C9.08 47.16 12.1 45.19 14.58 42.84C17.56 39.98 19.61 36.75 20.7 33.19C21.79 29.66 22.34 24.76 22.34 18.46L22.34 5.59C22.34 4.2 21.2 3.07 19.82 3.07L3.33 3.07C1.95 3.07 0.82 4.2 0.82 5.59L0.82 22.07C0.82 23.46 1.95 24.59 3.33 24.59L11.26 24.59C11.18 28.83 10.17 32.22 8.33 34.78C6.82 36.84 4.55 38.52 1.49 39.82Z" fill="#F6623E" fill-opacity="1.000000" fill-rule="nonzero"/>
		</g>
	</g>
</svg>
