<svg width="423.000000" height="52.919922" viewBox="0 0 423 52.9199" fill="none" xmlns="http://www.w3.org/2000/svg" xmlns:xlink="http://www.w3.org/1999/xlink">
	<desc>
			Created with Pixso.
	</desc>
	<defs/>
	<g opacity="0.300000">
		<path id="@GOOD4ME" d="M333.07 51.45L336.29 24.08L350.43 46.9L364.57 24.08L367.72 51.45L378.29 51.45L370.87 0L350.43 31.57L329.85 0L322.57 51.45L333.07 51.45ZM3.71 18.12Q1.68 23.17 1.68 29.05Q1.68 35.98 4.41 41.37Q5.62 43.77 7.36 45.72Q9.51 48.13 12.46 49.84Q17.78 52.92 25.55 52.92C29.28 52.92 32.43 52.57 35 51.87C37.56 51.17 39.9 50.23 42 49.07L39.41 43.47C37.31 44.63 35.18 45.47 33.04 45.99Q29.89 46.69 26.18 46.69C20.53 46.69 16.17 45.1 13.09 41.93Q12.33 41.12 11.7 40.24Q8.54 35.76 8.54 29.05Q8.54 22.75 11.06 17.85Q12.58 14.87 14.86 12.67Q16.33 11.25 18.12 10.14C21.21 8.28 24.85 7.35 29.05 7.35Q34.43 7.35 38.08 9.66C40.5 11.2 42.32 13.25 43.54 15.82Q43.72 16.2 43.89 16.6Q45.36 20.06 45.36 24.15C45.36 26.99 45.03 29.21 44.38 30.8C43.72 32.38 42.95 33.5 42.07 34.16Q40.81 35.07 39.9 35.07C39.06 35.07 38.5 34.79 38.22 34.23C37.93 33.66 37.8 32.97 37.8 32.13L37.8 31.22C37.84 30.84 37.89 30.54 37.93 30.31L40.11 15.05L32.83 15.05L32.41 18.69Q31.66 17.37 30.59 16.41Q30.07 15.93 29.47 15.54Q28.87 15.13 28.23 14.87Q26.96 14.35 25.48 14.35C23.61 14.35 21.74 14.93 19.87 16.1C18.06 17.26 16.54 18.96 15.33 21.21Q13.58 24.57 13.58 29.47Q13.58 34.44 16.02 37.34Q16.13 37.47 16.24 37.59Q17.47 38.95 19 39.68Q20.78 40.53 22.96 40.53C24.68 40.53 26.32 40.11 27.86 39.27C29.4 38.38 30.68 37.09 31.71 35.41C32.03 37.09 32.87 38.5 34.23 39.62Q35.12 40.3 36.12 40.69Q37.48 41.23 39.06 41.23C41.11 41.23 43.14 40.66 45.15 39.55C47.2 38.43 48.88 36.63 50.19 34.16C51.54 31.64 52.22 28.3 52.22 24.15C52.22 21.3 51.7 18.52 50.68 15.82C49.7 13.06 48.23 10.59 46.27 8.39C44.31 6.2 41.88 4.45 38.99 3.15C36.09 1.84 32.78 1.19 29.05 1.19C25.08 1.19 21.42 1.91 18.06 3.36C14.7 4.76 11.8 6.74 9.38 9.31C6.95 11.83 5.06 14.77 3.71 18.12ZM82.98 25.27L82.98 33.25L96.98 33.25C96.19 36.18 94.63 38.68 92.29 40.74C90.01 42.74 86.86 43.75 82.84 43.75Q79.04 43.75 75.87 42.32Q75.25 42.05 74.65 41.72Q73.42 40.99 72.36 40.07Q70.36 38.31 68.98 35.84C67.58 33.32 66.88 30.35 66.88 26.95C66.88 23.54 67.58 20.6 68.98 18.12C70.43 15.65 72.37 13.76 74.79 12.46Q75.81 11.89 76.89 11.48Q79.67 10.43 82.84 10.43C86.02 10.43 88.65 11.13 90.75 12.53C92.9 13.88 94.6 15.61 95.86 17.7L104.47 12.67C102.23 9.26 99.32 6.55 95.72 4.55C92.13 2.49 87.84 1.47 82.84 1.47C77.76 1.47 73.21 2.54 69.19 4.69C65.23 6.79 62.1 9.75 59.81 13.58Q59.61 13.92 59.41 14.27Q56.38 19.77 56.38 26.95C56.38 32.03 57.5 36.51 59.74 40.39C61.98 44.26 65.06 47.29 68.98 49.49C72.95 51.63 77.48 52.71 82.56 52.71C86.62 52.71 90.22 51.98 93.34 50.54C96.47 49.09 99.08 47.11 101.18 44.59C103.28 42.07 104.85 39.15 105.87 35.84C106.9 32.52 107.34 29 107.2 25.27L82.98 25.27ZM114.47 16.73Q112.51 21.35 112.51 26.95C112.51 30.63 113.14 34.06 114.4 37.24C115.7 40.36 117.5 43.09 119.79 45.43C122.12 47.71 124.85 49.51 127.98 50.82C131.15 52.08 134.63 52.71 138.41 52.71C142.19 52.71 145.64 52.08 148.77 50.82C151.94 49.51 154.67 47.71 156.96 45.43C159.29 43.09 161.09 40.36 162.35 37.24Q162.42 37.05 162.5 36.86Q164.31 32.25 164.31 26.95Q164.31 21.35 162.35 16.73C161.09 13.6 159.27 10.92 156.89 8.68Q155.85 7.66 154.72 6.79Q152 4.69 148.7 3.36C145.57 2.09 142.14 1.47 138.41 1.47C134.72 1.47 131.31 2.09 128.19 3.36Q125.16 4.58 122.59 6.44Q121.19 7.46 119.93 8.68C117.59 10.92 115.77 13.6 114.47 16.73ZM171.2 16.73C169.9 19.81 169.24 23.21 169.24 26.95C169.24 30.63 169.87 34.06 171.13 37.24C172.44 40.36 174.24 43.09 176.52 45.43C178.86 47.71 181.59 49.51 184.71 50.82C187.89 52.08 191.36 52.71 195.14 52.71C198.92 52.71 202.38 52.08 205.5 50.82C208.68 49.51 211.41 47.71 213.69 45.43C216.03 43.09 217.82 40.36 219.08 37.24Q219.16 37.05 219.24 36.86Q221.04 32.25 221.04 26.95Q221.04 21.35 219.08 16.73C217.82 13.6 216 10.92 213.62 8.68Q212.59 7.66 211.46 6.79Q208.74 4.69 205.43 3.36C202.31 2.09 198.88 1.47 195.14 1.47C191.46 1.47 188.05 2.09 184.92 3.36C181.8 4.62 179.04 6.39 176.66 8.68C174.33 10.92 172.51 13.6 171.2 16.73ZM228.78 51.45L245.44 51.45C250.62 51.45 255.13 50.44 258.95 48.44Q262.27 46.71 264.75 44.17Q266.6 42.26 267.98 39.9C270.13 36.21 271.2 31.89 271.2 26.95C271.2 21.95 270.13 17.64 267.98 14Q266.6 11.63 264.75 9.72Q262.27 7.18 258.95 5.46C255.13 3.45 250.62 2.45 245.44 2.45L228.78 2.45L228.78 51.45ZM302.76 2.45L274.76 42.42L299.26 42.42L299.26 51.45L309.69 51.45L309.69 42.42L317.39 42.42L317.39 33.81L309.69 33.81L309.69 2.45L302.76 2.45ZM417.23 2.45L386.01 2.45L386.01 51.45L417.23 51.45L417.23 42.91L395.81 42.91L395.81 29.61L415.83 29.61L415.83 21.28L395.81 21.28L395.81 10.99L417.23 10.99L417.23 2.45ZM125.04 35.28C123.78 32.85 123.15 30.07 123.15 26.95C123.15 23.82 123.78 21.04 125.04 18.62C126.34 16.19 128.14 14.3 130.42 12.95C132.76 11.55 135.42 10.85 138.41 10.85C141.49 10.85 144.17 11.55 146.46 12.95C148.74 14.3 150.52 16.19 151.78 18.62C153.03 21.04 153.67 23.82 153.67 26.95C153.67 30.07 153.01 32.85 151.71 35.28C150.45 37.7 148.67 39.62 146.39 41.02C144.1 42.37 141.44 43.05 138.41 43.05C135.42 43.05 132.76 42.37 130.42 41.02C128.14 39.62 126.34 37.7 125.04 35.28ZM181.77 35.28C180.51 32.85 179.88 30.07 179.88 26.95C179.88 23.82 180.51 21.04 181.77 18.62C183.08 16.19 184.88 14.3 187.16 12.95C189.5 11.55 192.16 10.85 195.14 10.85C198.22 10.85 200.91 11.55 203.19 12.95C205.48 14.3 207.25 16.19 208.51 18.62C209.77 21.04 210.4 23.82 210.4 26.95C210.4 30.07 209.75 32.85 208.44 35.28C207.18 37.7 205.41 39.62 203.12 41.02C200.84 42.37 198.18 43.05 195.14 43.05C192.16 43.05 189.5 42.37 187.16 41.02C184.88 39.62 183.08 37.7 181.77 35.28ZM239.14 11.62L245.16 11.62C248.06 11.62 250.67 12.15 253 13.23C255.38 14.25 257.27 15.91 258.67 18.2C260.12 20.44 260.84 23.35 260.84 26.95C260.84 30.54 260.12 33.48 258.67 35.77C257.27 38 255.38 39.66 253 40.74C250.67 41.76 248.06 42.28 245.16 42.28L239.14 42.28L239.14 11.62ZM300.24 34.93L288.62 34.93L300.24 18.41L300.24 34.93ZM22.65 33.54Q21.07 32.34 21.07 29.05C21.07 26.67 21.65 24.68 22.82 23.1Q24.31 21.09 26.12 20.73Q26.53 20.65 26.95 20.65Q28.06 20.65 28.91 21.12Q29.45 21.42 29.89 21.91C30.68 22.75 31.08 24.05 31.08 25.83Q31.08 28.63 30.1 30.52C29.49 31.73 28.72 32.66 27.79 33.32Q26.39 34.23 24.99 34.23Q23.56 34.23 22.65 33.54Z" fill="#F6623E" fill-opacity="1.000000" fill-rule="evenodd"/>
	</g>
</svg>
