<svg width="7.569336" height="14.000000" viewBox="0 0 7.56934 14" fill="none" xmlns="http://www.w3.org/2000/svg" xmlns:xlink="http://www.w3.org/1999/xlink">
	<desc>
			Created with Pixso.
	</desc>
	<defs/>
	<path id="Vector" d="M7.28 0L5.46 0C3.42 0 2.11 1.35 2.11 3.44L2.11 5.03L0.28 5.03C0.12 5.03 0 5.16 0 5.31L0 7.62C0 7.77 0.12 7.9 0.28 7.9L2.11 7.9L2.11 13.71C2.11 13.87 2.23 14 2.39 14L4.77 14C4.93 14 5.06 13.87 5.06 13.71L5.06 7.9L7.19 7.9C7.35 7.9 7.48 7.77 7.48 7.62L7.48 5.31C7.48 5.24 7.45 5.17 7.4 5.11C7.34 5.06 7.27 5.03 7.19 5.03L5.06 5.03L5.06 3.68C5.06 3.04 5.21 2.71 6.06 2.71L7.28 2.71C7.44 2.71 7.56 2.58 7.56 2.42L7.56 0.28C7.56 0.13 7.44 0 7.28 0Z" fill="#828181" fill-opacity="1.000000" fill-rule="nonzero"/>
</svg>
