<svg width="13.999512" height="14.000000" viewBox="0 0 13.9995 14" fill="none" xmlns="http://www.w3.org/2000/svg" xmlns:xlink="http://www.w3.org/1999/xlink">
	<desc>
			Created with Pixso.
	</desc>
	<defs/>
	<path id="Vector" d="M7.13 14C7.09 14 7.04 14 6.99 14C5.9 14 4.88 13.97 3.9 13.91C2.99 13.85 2.17 13.54 1.51 13.01C0.88 12.49 0.44 11.79 0.22 10.93C0.03 10.18 0.02 9.44 0.01 8.73C0 8.22 0 7.61 0 7C0 6.38 0 5.77 0.01 5.26C0.02 4.55 0.03 3.81 0.22 3.06C0.44 2.2 0.88 1.5 1.51 0.98C2.17 0.45 2.99 0.14 3.9 0.08C4.88 0.02 5.9 -0.01 7 0C8.09 -0.01 9.11 0.02 10.09 0.08C11 0.14 11.82 0.45 12.48 0.98C13.11 1.5 13.55 2.2 13.77 3.06C13.96 3.81 13.97 4.55 13.98 5.26C13.99 5.77 13.99 6.38 13.99 6.99L13.99 7C13.99 7.61 13.99 8.22 13.98 8.73C13.97 9.44 13.96 10.18 13.77 10.93C13.55 11.79 13.11 12.49 12.48 13.01C11.82 13.54 11 13.85 10.09 13.91C9.15 13.97 8.18 14 7.13 14ZM6.99 12.9C8.07 12.9 9.06 12.88 10.03 12.82C10.71 12.78 11.3 12.55 11.79 12.16C12.24 11.79 12.55 11.29 12.71 10.66C12.87 10.03 12.88 9.36 12.89 8.71C12.89 8.21 12.9 7.6 12.9 7C12.9 6.39 12.89 5.78 12.89 5.28C12.88 4.63 12.87 3.96 12.71 3.33C12.55 2.7 12.24 2.2 11.79 1.83C11.3 1.44 10.71 1.21 10.03 1.17C9.06 1.11 8.07 1.09 7 1.09C5.92 1.09 4.93 1.11 3.96 1.17C3.28 1.21 2.69 1.44 2.2 1.83C1.75 2.2 1.44 2.7 1.28 3.33C1.12 3.96 1.11 4.63 1.1 5.28C1.1 5.78 1.09 6.39 1.09 7C1.09 7.6 1.1 8.21 1.1 8.71C1.11 9.36 1.12 10.03 1.28 10.66C1.44 11.29 1.75 11.79 2.2 12.16C2.69 12.55 3.28 12.78 3.96 12.82C4.93 12.88 5.92 12.9 6.99 12.9ZM6.97 10.41C5.08 10.41 3.55 8.88 3.55 7C3.55 5.11 5.08 3.58 6.97 3.58C8.85 3.58 10.39 5.11 10.39 7C10.39 8.88 8.85 10.41 6.97 10.41ZM6.97 4.67C5.69 4.67 4.64 5.71 4.64 7C4.64 8.28 5.69 9.32 6.97 9.32C8.25 9.32 9.29 8.28 9.29 7C9.29 5.71 8.25 4.67 6.97 4.67ZM10.77 2.48C10.32 2.48 9.95 2.85 9.95 3.3C9.95 3.76 10.32 4.12 10.77 4.12C11.22 4.12 11.59 3.76 11.59 3.3C11.59 2.85 11.22 2.48 10.77 2.48Z" fill="#828181" fill-opacity="1.000000" fill-rule="nonzero"/>
</svg>
