<svg width="11.374512" height="14.000000" viewBox="0 0 11.3745 14" fill="none" xmlns="http://www.w3.org/2000/svg" xmlns:xlink="http://www.w3.org/1999/xlink">
	<desc>
			Created with Pixso.
	</desc>
	<defs/>
	<path id="Vector" d="M5.87 0C2.04 0 0 2.45 0 5.14C0 6.38 0.69 7.93 1.8 8.42C1.97 8.5 2.06 8.46 2.1 8.31C2.13 8.19 2.28 7.62 2.35 7.35C2.37 7.26 2.36 7.18 2.29 7.1C1.92 6.68 1.63 5.9 1.63 5.17C1.63 3.3 3.12 1.48 5.64 1.48C7.83 1.48 9.36 2.9 9.36 4.94C9.36 7.23 8.15 8.82 6.57 8.82C5.69 8.82 5.04 8.14 5.25 7.29C5.5 6.28 5.99 5.19 5.99 4.46C5.99 3.81 5.62 3.27 4.86 3.27C3.97 3.27 3.25 4.15 3.25 5.33C3.25 6.08 3.52 6.59 3.52 6.59C3.52 6.59 2.64 10.15 2.47 10.81C2.2 11.93 2.51 13.75 2.54 13.91C2.56 14 2.65 14.03 2.71 13.95C2.79 13.84 3.86 12.32 4.16 11.23C4.27 10.83 4.71 9.2 4.71 9.2C5 9.73 5.85 10.18 6.75 10.18C9.43 10.18 11.37 7.82 11.37 4.9C11.36 2.09 8.96 0 5.87 0Z" fill="#828181" fill-opacity="1.000000" fill-rule="nonzero"/>
</svg>
