<svg width="17.230957" height="14.000000" viewBox="0 0 17.231 14" fill="none" xmlns="http://www.w3.org/2000/svg" xmlns:xlink="http://www.w3.org/1999/xlink">
	<desc>
			Created with Pixso.
	</desc>
	<defs/>
	<path id="Vector" d="M17.23 1.65C16.58 1.93 15.9 2.12 15.19 2.21C15.92 1.77 16.48 1.09 16.74 0.26C16.06 0.66 15.31 0.95 14.5 1.11C13.86 0.42 12.93 0 11.92 0C9.97 0 8.39 1.58 8.39 3.53C8.39 3.81 8.42 4.08 8.48 4.33C5.54 4.19 2.94 2.78 1.19 0.64C0.89 1.17 0.71 1.77 0.71 2.42C0.71 3.65 1.34 4.73 2.28 5.36C1.71 5.35 1.16 5.18 0.68 4.93C0.68 4.94 0.68 4.95 0.68 4.96C0.68 6.68 1.91 8.11 3.51 8.43C3.23 8.51 2.91 8.55 2.59 8.55C2.36 8.55 2.13 8.54 1.92 8.49C2.38 9.89 3.68 10.92 5.22 10.95C4.02 11.89 2.49 12.46 0.84 12.46C0.55 12.46 0.27 12.45 0 12.41C1.56 13.42 3.41 14 5.41 14C11.91 14 15.47 8.61 15.47 3.94C15.47 3.79 15.46 3.64 15.46 3.49C16.16 2.99 16.75 2.37 17.23 1.65Z" fill="#828181" fill-opacity="1.000000" fill-rule="nonzero"/>
</svg>
