<svg width="20.363770" height="14.000000" viewBox="0 0 20.3638 14" fill="none" xmlns="http://www.w3.org/2000/svg" xmlns:xlink="http://www.w3.org/1999/xlink">
	<desc>
			Created with Pixso.
	</desc>
	<defs/>
	<path id="Vector" d="M19.49 1.34C18.94 0.36 18.34 0.18 17.12 0.11C15.9 0.03 12.84 0 10.18 0C7.52 0 4.45 0.03 3.23 0.11C2.02 0.18 1.41 0.36 0.86 1.34C0.29 2.33 0 4.02 0 6.99C0 6.99 0 7 0 7C0 7 0 7 0 7L0 7C0 9.96 0.29 11.67 0.86 12.64C1.41 13.62 2.01 13.8 3.23 13.88C4.45 13.95 7.52 14 10.18 14C12.84 14 15.9 13.95 17.12 13.88C18.34 13.8 18.94 13.62 19.49 12.64C20.07 11.67 20.36 9.97 20.36 7C20.36 7 20.36 7 20.36 7C20.36 7 20.36 6.99 20.36 6.99C20.36 4.02 20.07 2.33 19.49 1.34ZM7.63 10.81L7.63 3.18L14 7L7.63 10.81Z" fill="#828181" fill-opacity="1.000000" fill-rule="nonzero"/>
</svg>
