<svg width="17.716309" height="24.000000" viewBox="0 0 17.7163 24" fill="none" xmlns="http://www.w3.org/2000/svg" xmlns:xlink="http://www.w3.org/1999/xlink">
	<desc>
			Created with Pixso.
	</desc>
	<defs/>
	<path id="Vector" d="M15.11 6.64L14.22 6.64L14.22 5.36C14.22 2.4 11.81 0 8.85 0C5.89 0 3.48 2.4 3.48 5.36L3.48 6.64L2.6 6.64C1.16 6.64 0 7.81 0 9.24L0 21.39C0 22.83 1.16 24 2.6 24L15.11 24C16.54 24 17.71 22.83 17.71 21.39L17.71 9.24C17.71 7.81 16.54 6.64 15.11 6.64ZM5.18 5.36C5.18 3.34 6.83 1.7 8.85 1.7C10.88 1.7 12.52 3.34 12.52 5.36L12.52 6.64L5.18 6.64L5.18 5.36ZM16.01 21.39C16.01 21.89 15.6 22.29 15.11 22.29L2.6 22.29C2.1 22.29 1.69 21.89 1.69 21.39L1.69 9.24C1.69 8.74 2.1 8.34 2.6 8.34L3.48 8.34L3.48 9.53C3.21 9.77 3.04 10.12 3.04 10.51C3.04 11.22 3.62 11.81 4.33 11.81C5.05 11.81 5.63 11.22 5.63 10.51C5.63 10.12 5.46 9.77 5.18 9.53L5.18 8.34L12.52 8.34L12.52 9.53C12.25 9.77 12.07 10.12 12.07 10.51C12.07 11.22 12.65 11.81 13.37 11.81C14.09 11.81 14.67 11.22 14.67 10.51C14.67 10.12 14.5 9.77 14.22 9.53L14.22 8.34L15.11 8.34C15.61 8.34 16.01 8.74 16.01 9.24L16.01 21.39L16.01 21.39Z" fill="#454545" fill-opacity="1.000000" fill-rule="nonzero"/>
</svg>
