<svg width="22.000000" height="22.000000" viewBox="0 0 22 22" fill="none" xmlns="http://www.w3.org/2000/svg" xmlns:xlink="http://www.w3.org/1999/xlink">
	<desc>
			Created with Pixso.
	</desc>
	<defs>
		<clipPath id="clip157_2336">
			<rect id="loupe (2) 1" rx="0.000000" width="21.000000" height="21.000000" transform="translate(0.500000 0.500000)" fill="white" fill-opacity="0"/>
		</clipPath>
	</defs>
	<rect id="loupe (2) 1" rx="0.000000" width="21.000000" height="21.000000" transform="translate(0.500000 0.500000)" fill="#FFFFFF" fill-opacity="0"/>
	<g clip-path="url(#clip157_2336)">
		<path id="Vector" d="M21.73 20.43L15.47 14.17C16.68 12.68 17.41 10.78 17.41 8.7C17.41 3.9 13.5 0 8.7 0C3.9 0 0 3.9 0 8.7C0 13.5 3.9 17.41 8.7 17.41C10.77 17.41 12.68 16.68 14.17 15.47L20.43 21.73C20.61 21.91 20.84 21.99 21.08 21.99C21.31 21.99 21.55 21.91 21.73 21.73C22.08 21.37 22.08 20.79 21.73 20.43ZM8.7 15.58C4.91 15.58 1.83 12.49 1.83 8.7C1.83 4.91 4.91 1.83 8.7 1.83C12.49 1.83 15.58 4.91 15.58 8.7C15.58 12.49 12.49 15.58 8.7 15.58Z" fill="#454545" fill-opacity="1.000000" fill-rule="nonzero"/>
	</g>
</svg>
