<svg width="62.000000" height="62.000000" viewBox="0 0 62 62" fill="none" xmlns="http://www.w3.org/2000/svg" xmlns:xlink="http://www.w3.org/1999/xlink">
	<desc>
			Created with Pixso.
	</desc>
	<defs>
		<clipPath id="clip157_2371">
			<rect id="shield 1" rx="0.000000" width="61.000000" height="61.000000" transform="translate(0.500000 0.500000)" fill="white" fill-opacity="0"/>
		</clipPath>
	</defs>
	<rect id="shield 1" rx="0.000000" width="61.000000" height="61.000000" transform="translate(0.500000 0.500000)" fill="#FFFFFF" fill-opacity="0"/>
	<g clip-path="url(#clip157_2371)">
		<path id="Vector" d="M29.95 23.64C30.35 24.02 31.02 23.94 31.33 23.48L37.38 14.36C37.65 13.94 37.54 13.37 37.12 13.1C36.7 12.82 36.14 12.93 35.86 13.35L30.41 21.57L27.39 18.7C27.02 18.35 26.45 18.37 26.1 18.73C25.76 19.1 25.77 19.67 26.14 20.02C26.14 20.02 29.95 23.63 29.95 23.64Z" fill="#454545" fill-opacity="1.000000" fill-rule="nonzero"/>
		<path id="Vector" d="M30.57 37.49C30.74 37.57 30.93 37.61 31.12 37.61L31.13 37.61C31.33 37.61 31.52 37.56 31.7 37.48C45.51 30.91 47.85 16.74 48.23 12.56C48.32 11.6 47.79 10.71 46.9 10.34C44.15 9.2 42.28 6.65 42.02 3.68C41.94 2.77 41.16 2.05 40.24 2.05L40.23 2.05L21.62 2.16C20.68 2.17 19.92 2.88 19.85 3.82C19.62 6.79 17.78 9.36 15.04 10.53C14.16 10.91 13.64 11.8 13.74 12.76C14.18 16.94 16.68 31.08 30.57 37.49ZM15.76 12.2C19.11 10.77 21.37 7.62 21.66 3.98L40.21 3.87C40.54 7.5 42.83 10.62 46.2 12.02C46.35 12.08 46.44 12.23 46.43 12.39C46.06 16.31 43.88 29.54 31.12 35.74C18.29 29.69 15.96 16.49 15.54 12.57C15.53 12.41 15.61 12.26 15.76 12.2Z" fill="#454545" fill-opacity="1.000000" fill-rule="nonzero"/>
		<path id="Vector" d="M18.03 17.23C18.14 17.64 18.65 18.01 19.14 17.87C19.62 17.74 19.91 17.24 19.78 16.76C19.55 15.91 19.35 15.04 19.2 14.19C21.67 12.58 23.5 10.18 24.4 7.38L37.51 7.3C38.44 10.09 40.3 12.47 42.79 14.05C42.65 14.91 42.46 15.77 42.24 16.63C42.11 17.11 42.41 17.61 42.89 17.74C43.38 17.86 43.87 17.57 44 17.08C44.26 16.08 44.47 15.06 44.63 14.05C44.72 13.49 44.46 12.94 43.97 12.64C41.66 11.25 39.95 9.05 39.15 6.47C38.98 5.88 38.43 5.48 37.82 5.48L37.81 5.48L24.08 5.56C23.47 5.56 22.92 5.98 22.75 6.56C21.99 9.16 20.3 11.37 18 12.8C17.52 13.1 17.27 13.65 17.36 14.21C17.53 15.22 17.75 16.23 18.03 17.23Z" fill="#454545" fill-opacity="1.000000" fill-rule="nonzero"/>
		<path id="Vector" d="M42.16 19.93C41.7 19.74 41.17 19.96 40.98 20.42C38.88 25.51 35.56 29.37 31.1 31.92C26.61 29.42 23.24 25.59 21.08 20.52C20.88 20.06 20.35 19.84 19.89 20.04C19.43 20.24 19.21 20.77 19.41 21.23C21.76 26.76 25.47 30.94 30.44 33.63C30.64 33.74 30.87 33.8 31.1 33.8C31.34 33.8 31.57 33.74 31.78 33.62C36.71 30.87 40.37 26.66 42.66 21.11C42.85 20.65 42.63 20.12 42.16 19.93Z" fill="#454545" fill-opacity="1.000000" fill-rule="nonzero"/>
		<path id="Vector" d="M5.82 48.53C4.05 48.53 2.61 49.97 2.61 51.74C2.61 53.51 4.05 54.95 5.82 54.95C7.59 54.95 9.04 53.51 9.04 51.74C9.04 49.97 7.59 48.53 5.82 48.53ZM5.82 53.14C5.05 53.14 4.43 52.51 4.43 51.74C4.43 50.97 5.05 50.34 5.82 50.34C6.59 50.34 7.22 50.97 7.22 51.74C7.22 52.51 6.59 53.14 5.82 53.14Z" fill="#454545" fill-opacity="1.000000" fill-rule="nonzero"/>
		<path id="Vector" d="M61.34 39.63C60.18 37.92 57.84 37.47 56.12 38.62L44.25 46.57L41.71 46.43L41.65 45.78C41.39 43.24 39.45 41.21 36.92 40.86C36.91 40.85 36.89 40.85 36.88 40.85L24.08 39.73C23.65 39.66 22.26 39.26 18.46 37.08C16.48 35.94 14.25 35.3 11.98 35.22L11.98 32.84C11.98 31.65 11.01 30.68 9.82 30.68L2.16 30.68C0.97 30.68 0 31.65 0 32.84L0 56.24C0 57.43 0.97 58.4 2.16 58.4L9.82 58.4C11.01 58.4 11.98 57.43 11.98 56.24L11.98 55.6L23.17 59.83C23.19 59.84 24.1 60.18 25.77 60.02C25.77 60.02 44.35 57.35 44.35 57.35C44.36 57.34 44.36 57.34 44.37 57.34C45.95 57.09 47.45 56.42 48.7 55.4C48.71 55.39 48.72 55.38 48.73 55.37L60.73 44.58C62.14 43.32 62.41 41.2 61.34 39.63ZM59.52 43.23L47.53 54.01C46.54 54.81 45.35 55.35 44.08 55.55L25.52 58.23C25.51 58.23 25.51 58.23 25.5 58.23C25.5 58.23 25.49 58.23 25.49 58.23C24.94 58.32 24.36 58.28 23.77 58.12L11.98 53.66L11.98 43.28C11.98 42.78 11.58 42.37 11.08 42.37C10.57 42.37 10.17 42.78 10.17 43.28L10.17 56.24C10.17 56.43 10.01 56.59 9.82 56.59L2.16 56.59C1.97 56.59 1.81 56.43 1.81 56.24L1.81 32.84C1.81 32.65 1.97 32.5 2.16 32.5L9.82 32.5C10.01 32.5 10.17 32.65 10.17 32.84L10.17 39.18C10.17 39.68 10.57 40.09 11.08 40.09C11.58 40.09 11.98 39.68 11.98 39.18L11.98 37.04C13.93 37.12 15.85 37.68 17.55 38.66C22.14 41.29 23.43 41.47 23.85 41.53C23.86 41.53 23.88 41.53 23.9 41.54L36.69 42.66C38.38 42.91 39.67 44.26 39.84 45.96L39.89 46.44L22.76 47.5C22.75 47.5 22.73 47.5 22.72 47.5C22.17 47.45 21.67 47.19 21.31 46.76C20.99 46.37 20.42 46.32 20.03 46.64C19.65 46.96 19.59 47.54 19.92 47.92C20.58 48.72 21.52 49.2 22.56 49.31C23.12 49.37 40.89 48.2 40.89 48.2L44.45 48.4C44.64 48.41 44.84 48.36 45 48.25L57.13 40.13C58.02 39.53 59.24 39.77 59.84 40.66C60.39 41.47 60.26 42.57 59.52 43.23Z" fill="#454545" fill-opacity="1.000000" fill-rule="nonzero"/>
	</g>
</svg>
