<svg width="62.000000" height="62.000000" viewBox="0 0 62 62" fill="none" xmlns="http://www.w3.org/2000/svg" xmlns:xlink="http://www.w3.org/1999/xlink">
	<desc>
			Created with Pixso.
	</desc>
	<defs>
		<clipPath id="clip157_2355">
			<rect id="ecology 1" rx="0.000000" width="61.000000" height="61.000000" transform="translate(0.500000 0.500000)" fill="white" fill-opacity="0"/>
		</clipPath>
	</defs>
	<rect id="ecology 1" rx="0.000000" width="61.000000" height="61.000000" transform="translate(0.500000 0.500000)" fill="#FFFFFF" fill-opacity="0"/>
	<g clip-path="url(#clip157_2355)">
		<path id="Vector" d="M26.84 51.66C26.57 46.49 23.72 41.81 19.25 39.2L12.12 31.27C11.16 30.18 9.67 29.72 8.26 30.08L8.26 16.53C8.26 14.25 6.41 12.4 4.13 12.4C1.85 12.4 0 14.25 0 16.53L0 36.09C0 37.67 0.4 39.22 1.17 40.61L10.33 57.1L10.33 60.96C10.33 61.53 10.79 62 11.36 62L25.83 62C26.4 62 26.86 61.53 26.86 60.96L26.86 51.66L26.84 51.66ZM24.79 59.93L12.39 59.93L12.39 56.83C12.39 56.65 12.35 56.48 12.27 56.33L2.97 39.6C2.38 38.52 2.06 37.32 2.06 36.09L2.06 16.53C2.06 15.39 2.99 14.46 4.13 14.46C5.27 14.46 6.2 15.39 6.2 16.53L6.2 31.36C4.9 32.86 4.93 35.09 6.26 36.56L14.73 45.88L16.26 44.48L7.79 35.17C7.12 34.43 7.15 33.29 7.86 32.58C8.59 31.84 9.78 31.84 10.51 32.58C10.53 32.6 10.56 32.63 10.58 32.65L17.83 40.7C17.92 40.79 18.02 40.87 18.14 40.94C22.25 43.3 24.79 47.67 24.79 52.41L24.79 59.93Z" fill="#454545" fill-opacity="1.000000" fill-rule="nonzero"/>
		<path id="Vector" d="M57.86 12.4C55.58 12.4 53.73 14.25 53.73 16.53L53.73 30.08C53.39 30 53.05 29.96 52.7 29.96C51.62 29.99 50.6 30.46 49.87 31.27L42.74 39.2C38.26 41.8 35.41 46.49 35.15 51.66L35.13 51.66L35.13 60.96C35.13 61.53 35.59 62 36.16 62L50.63 62C51.2 62 51.66 61.53 51.66 60.96L51.66 57.09L60.71 40.69C61.55 39.26 61.99 37.64 62 35.98L62 16.53C62 14.25 60.14 12.4 57.86 12.4ZM59.93 35.98C59.93 37.28 59.58 38.55 58.92 39.67L49.72 56.33C49.64 56.48 49.59 56.65 49.6 56.83L49.6 59.93L37.2 59.93L37.2 52.41C37.21 47.65 39.77 43.27 43.91 40.91C44 40.86 44.09 40.79 44.16 40.71L51.41 32.65C52.11 31.88 53.29 31.82 54.06 32.51C54.84 33.21 54.9 34.4 54.2 35.17L45.73 44.48L47.26 45.88L55.73 36.56C57.06 35.09 57.09 32.86 55.79 31.36L55.79 16.53C55.79 15.39 56.72 14.46 57.86 14.46C59 14.46 59.93 15.39 59.93 16.53L59.93 35.98Z" fill="#454545" fill-opacity="1.000000" fill-rule="nonzero"/>
		<path id="Vector" d="M43.39 25.83L41.33 25.83C37.62 25.83 34.15 27.65 32.03 30.69L32.03 23.76L33.06 23.76C39.34 23.75 44.42 18.67 44.43 12.4C44.43 11.82 43.97 11.36 43.39 11.36L41.33 11.36C37.62 11.37 34.15 13.18 32.03 16.22L32.03 9.29L33.06 9.29C37.62 9.29 41.32 5.59 41.33 1.03C41.33 0.46 40.87 0 40.29 0L38.23 0C35.22 0 32.45 1.63 30.99 4.27C29.54 1.63 26.77 0 23.76 0L21.69 0C21.12 0 20.66 0.46 20.66 1.03C20.67 5.59 24.36 9.29 28.93 9.29L29.96 9.29L29.96 16.22C27.84 13.18 24.37 11.37 20.66 11.36L18.59 11.36C18.02 11.36 17.56 11.82 17.56 12.4C17.57 18.67 22.65 23.75 28.93 23.76L29.96 23.76L29.96 30.69C27.84 27.65 24.37 25.83 20.66 25.83L18.59 25.83C18.02 25.83 17.56 26.29 17.56 26.86C17.57 33.14 22.65 38.22 28.93 38.23L29.96 38.23L29.96 46.5L32.03 46.5L32.03 38.23L33.06 38.23C39.34 38.22 44.42 33.14 44.43 26.86C44.43 26.29 43.97 25.83 43.39 25.83ZM41.33 13.43L42.3 13.43C41.77 18.13 37.8 21.69 33.06 21.7L32.08 21.7C32.62 16.99 36.59 13.43 41.33 13.43ZM38.23 2.06L39.18 2.06C38.67 5.04 36.09 7.22 33.06 7.23L32.11 7.23C32.62 4.25 35.2 2.07 38.23 2.06ZM28.93 7.23C25.9 7.22 23.32 5.04 22.81 2.06L23.76 2.06C26.79 2.07 29.37 4.25 29.88 7.23L28.93 7.23ZM28.93 21.7C24.19 21.69 20.22 18.13 19.68 13.43L20.66 13.43C25.4 13.43 29.37 16.99 29.9 21.7L28.93 21.7ZM28.93 36.16C24.19 36.16 20.22 32.6 19.68 27.9L20.66 27.9C25.4 27.9 29.37 31.46 29.9 36.16L28.93 36.16ZM33.06 36.16L32.08 36.16C32.62 31.46 36.59 27.9 41.33 27.9L42.3 27.9C41.77 32.6 37.8 36.16 33.06 36.16Z" fill="#454545" fill-opacity="1.000000" fill-rule="nonzero"/>
	</g>
</svg>
