<svg width="62.000000" height="62.000000" viewBox="0 0 62 62" fill="none" xmlns="http://www.w3.org/2000/svg" xmlns:xlink="http://www.w3.org/1999/xlink">
	<desc>
			Created with Pixso.
	</desc>
	<defs>
		<clipPath id="clip157_2384">
			<rect id="lab 1" rx="0.000000" width="61.000000" height="61.000000" transform="translate(0.500000 0.500000)" fill="white" fill-opacity="0"/>
		</clipPath>
	</defs>
	<rect id="lab 1" rx="0.000000" width="61.000000" height="61.000000" transform="translate(0.500000 0.500000)" fill="#FFFFFF" fill-opacity="0"/>
	<g clip-path="url(#clip157_2384)">
		<path id="Vector" d="M34.42 30.2L32 26.35C31.63 25.75 30.64 25.75 30.26 26.35L27.85 30.2C27.09 31.42 27.06 32.88 27.75 34.13C28.44 35.38 29.71 36.13 31.13 36.13C32.56 36.13 33.83 35.38 34.52 34.13C35.21 32.88 35.17 31.42 34.42 30.2ZM32.72 33.14C32.4 33.72 31.8 34.07 31.13 34.07C30.46 34.07 29.87 33.72 29.54 33.14C29.22 32.55 29.24 31.86 29.59 31.29L31.13 28.83L32.68 31.29C33.03 31.86 33.05 32.55 32.72 33.14Z" fill="#454545" fill-opacity="1.000000" fill-rule="nonzero"/>
		<path id="Vector" d="M47.59 4.86C47.59 3.62 47.11 2.45 46.23 1.57C44.41 -0.25 41.46 -0.25 39.65 1.56L36.27 4.91L34.94 3.58L33.49 5.03L35.54 7.09L35.84 7.39L30.41 12.82C30.22 13.01 30.11 13.27 30.11 13.55L30.11 16.63C30.11 17.19 30.57 17.65 31.13 17.65L34.21 17.65C34.49 17.65 34.75 17.54 34.94 17.35L40.37 11.92L40.67 12.22L42.73 14.27L44.18 12.82L42.85 11.5L46.23 8.15C47.11 7.27 47.59 6.1 47.59 4.86ZM33.79 15.6L32.16 15.6L32.16 13.97L37.29 8.84L38.92 10.47L33.79 15.6ZM44.78 6.7L41.4 10.05L41.1 9.74L38.02 6.66L37.72 6.36L41.1 3.02C42.11 2 43.76 2 44.78 3.02C45.27 3.51 45.54 4.16 45.54 4.86C45.54 5.55 45.27 6.21 44.78 6.7Z" fill="#454545" fill-opacity="1.000000" fill-rule="nonzero"/>
		<path id="Vector" d="M61.92 30.92C61.88 30.52 61.6 30.18 61.22 30.06C60.83 29.92 51.37 26.86 44.85 32.3C42.02 34.65 40.99 37.41 40.73 39.82L39.35 36.92L39.35 25.69C40.54 25.26 41.4 24.12 41.4 22.78C41.4 21.09 40.02 19.7 38.32 19.7L23.95 19.7C22.25 19.7 20.87 21.09 20.87 22.78C20.87 24.12 21.73 25.26 22.92 25.69L22.92 36.92L22.42 37.97C22.49 34.96 21.9 31.49 19.65 28.35C14.31 20.86 2.97 19.75 2.49 19.71C1.98 19.66 1.54 19.98 1.4 20.46C1.28 20.94 -1.73 32.18 1.45 39.61C4.76 47.33 15.29 47.42 15.74 47.42C16.11 47.42 16.45 47.22 16.63 46.9C16.81 46.57 16.81 46.18 16.62 45.86L13.54 40.73C13.42 40.53 13.24 40.38 13.02 40.3L8.39 38.56L10.77 38.17C11.09 38.11 11.36 37.92 11.51 37.64C11.66 37.36 11.67 37.03 11.54 36.74L9.15 31.35L10.99 32.82C11.4 33.15 11.99 33.12 12.36 32.75L13.69 31.42L13.69 37.15C13.69 37.35 13.74 37.53 13.84 37.7L18.78 45.59L14.54 54.44C13.78 56.04 13.89 57.89 14.83 59.39C15.78 60.89 17.4 61.79 19.17 61.79L43.1 61.79C44.87 61.79 46.49 60.89 47.44 59.39C48.38 57.89 48.49 56.04 47.72 54.44L43.54 45.7L47.25 42.02C47.37 41.91 47.45 41.77 47.5 41.62L48.58 38.38L48.64 38.54C48.73 38.81 48.93 39.03 49.19 39.15C49.45 39.27 49.75 39.27 50.01 39.16L52.86 37.94L45.77 45.74C45.56 45.96 45.47 46.27 45.52 46.58C45.56 46.88 45.74 47.15 46 47.31C46.92 47.86 48.52 48.44 50.41 48.44C52.26 48.44 54.4 47.88 56.43 46.19C62.93 40.77 61.96 31.32 61.92 30.92ZM15.74 36.86L15.74 28.94C15.74 28.53 15.49 28.15 15.1 27.99C14.72 27.83 14.28 27.92 13.99 28.22L11.56 30.65L7.14 27.11C6.77 26.82 6.25 26.81 5.87 27.1C5.5 27.39 5.37 27.9 5.56 28.33L9.13 36.36L4.28 37.17C3.82 37.24 3.47 37.62 3.43 38.08C3.38 38.54 3.65 38.98 4.09 39.14L11.96 42.09L13.83 45.21C10.89 44.83 5.35 43.49 3.34 38.8C0.92 33.15 2.55 24.59 3.17 21.87C5.85 22.27 13.98 23.94 17.98 29.54C21.35 34.25 20.4 40.03 19.57 42.99L15.74 36.86ZM45.7 58.3C45.13 59.2 44.16 59.73 43.09 59.73L19.17 59.73C18.11 59.73 17.14 59.2 16.57 58.3C16.25 57.79 16.11 57.23 16.11 56.65L28.41 56.65C28.74 56.65 29.05 56.5 29.24 56.24C29.43 55.98 29.49 55.64 29.39 55.32C29.24 54.84 29.31 54.32 29.59 53.87L31.13 51.41L32.67 53.87C32.86 54.17 32.95 54.49 32.95 54.83C32.95 55 32.93 55.16 32.88 55.32C32.78 55.63 32.83 55.97 33.03 56.23C33.22 56.5 33.53 56.65 33.85 56.65L46.16 56.65C46.16 57.23 46.02 57.79 45.7 58.3ZM45.53 54.6L35 54.6C34.96 53.97 34.76 53.34 34.42 52.78L32.16 49.18L32.16 48.44L33.19 48.44C36.02 48.44 38.32 46.14 38.32 43.31C38.32 42.74 37.86 42.29 37.29 42.29L35.24 42.29C34.08 42.29 33.02 42.69 32.16 43.34L32.16 43.31L31.73 43.31C30.93 41.5 29.13 40.23 27.03 40.23L24.98 40.23C24.41 40.23 23.95 40.69 23.95 41.26C23.95 44.09 26.25 46.39 29.08 46.39L30.11 46.39L30.11 49.18L27.85 52.78C27.5 53.34 27.31 53.97 27.27 54.6L16.74 54.6L24.88 37.6C24.94 37.46 24.98 37.31 24.98 37.15L24.98 25.86L28.05 25.86L28.05 23.81L23.95 23.81C23.38 23.81 22.92 23.35 22.92 22.78C22.92 22.22 23.38 21.76 23.95 21.76L38.32 21.76C38.89 21.76 39.35 22.22 39.35 22.78C39.35 23.35 38.89 23.81 38.32 23.81L34.21 23.81L34.21 25.86L37.29 25.86L37.29 37.15C37.29 37.31 37.33 37.46 37.39 37.6L45.53 54.6ZM32.34 46.39C32.76 45.2 33.9 44.34 35.24 44.34L36.09 44.34C35.67 45.53 34.52 46.39 33.19 46.39L32.34 46.39ZM29.93 44.34L29.08 44.34C27.74 44.34 26.6 43.48 26.18 42.29L27.03 42.29C28.37 42.29 29.51 43.14 29.93 44.34ZM55.11 44.61C52.42 46.85 49.75 46.53 48.26 46.05L57.55 35.83C57.88 35.47 57.91 34.93 57.63 34.54C57.35 34.15 56.83 34 56.39 34.19L50.23 36.83L49.56 34.81C49.42 34.39 49.02 34.11 48.58 34.11C48.14 34.11 47.75 34.39 47.61 34.81L45.63 40.74L42.92 43.43C42.47 41.23 42.29 37.09 46.16 33.87C50.89 29.93 57.79 31.27 59.92 31.82C60 33.96 59.85 40.66 55.11 44.61Z" fill="#454545" fill-opacity="1.000000" fill-rule="nonzero"/>
		<path id="Vector" d="M20.98 49.01L23.03 44.91L24.87 45.82L22.81 49.93L20.98 49.01Z" fill="#454545" fill-opacity="1.000000" fill-rule="evenodd"/>
		<path id="Vector" d="M18.92 53.12L19.95 51.07L21.79 51.98L20.76 54.04L18.92 53.12Z" fill="#454545" fill-opacity="1.000000" fill-rule="evenodd"/>
		<path id="Vector" d="M20.87 0.2C17.47 0.2 14.71 2.97 14.71 6.36C14.71 9.76 17.47 12.52 20.87 12.52C24.27 12.52 27.03 9.76 27.03 6.36C27.03 2.97 24.27 0.2 20.87 0.2ZM20.87 10.47C18.61 10.47 16.76 8.63 16.76 6.36C16.76 4.1 18.61 2.26 20.87 2.26C23.13 2.26 24.98 4.1 24.98 6.36C24.98 8.63 23.13 10.47 20.87 10.47Z" fill="#454545" fill-opacity="1.000000" fill-rule="nonzero"/>
		<path id="Vector" d="M50.64 16.63C48.37 16.63 46.53 18.47 46.53 20.73C46.53 23 48.37 24.84 50.64 24.84C52.9 24.84 54.74 23 54.74 20.73C54.74 18.47 52.9 16.63 50.64 16.63ZM50.64 22.78C49.5 22.78 48.58 21.86 48.58 20.73C48.58 19.6 49.5 18.68 50.64 18.68C51.77 18.68 52.69 19.6 52.69 20.73C52.69 21.86 51.77 22.78 50.64 22.78Z" fill="#454545" fill-opacity="1.000000" fill-rule="nonzero"/>
		<path id="Vector" d="M59.87 2.26L59.87 0.2L57.82 0.2L57.82 2.26L55.77 2.26L55.77 4.31L57.82 4.31L57.82 6.36L59.87 6.36L59.87 4.31L61.93 4.31L61.93 2.26L59.87 2.26Z" fill="#454545" fill-opacity="1.000000" fill-rule="nonzero"/>
		<path id="Vector" d="M17.79 5.34L19.84 5.34L19.84 7.39L17.79 7.39L17.79 5.34Z" fill="#454545" fill-opacity="1.000000" fill-rule="evenodd"/>
		<path id="Vector" d="M7.53 8.41L7.53 6.36L5.47 6.36L5.47 8.41L3.42 8.41L3.42 10.47L5.47 10.47L5.47 12.52L7.53 12.52L7.53 10.47L9.58 10.47L9.58 8.41L7.53 8.41Z" fill="#454545" fill-opacity="1.000000" fill-rule="nonzero"/>
	</g>
</svg>
